# xmcd
#
# Track frame offsets:
#	150
#	17584
#	27134
#	37970
#	49457
#	65674
#	76115
#	86111
#	97078
#	111374
#	128516
#	144316
#
# Disc length: 2107 seconds
# Revision: 0
# Processed by: cddbd v1.5.2PL0 Copyright (c) Steve Scherf et al.
# Submitted via: dBpowerAMP V12.0
#
DISCID=9908390c
DTITLE=Shane Johnson - Just Good Country
DYEAR=2013
DGENRE=Country
TTITLE0=LIghts On The Hill
TTITLE1=Kiss An Angel Good Morning
TTITLE2=My Old Akubra
TTITLE3=Nice Guys Finish Last
TTITLE4=Okie From Muskogee
TTITLE5=King Of The Road
TTITLE6=Ring Of Fire
TTITLE7=Amanda
TTITLE8=Six Days On The Road
TTITLE9=Me And Bobby McGee
TTITLE10=Drovers
TTITLE11=Folsom Prison Blues
EXTD=
EXTT0=
EXTT1=
EXTT2=
EXTT3=
EXTT4=
EXTT5=
EXTT6=
EXTT7=
EXTT8=
EXTT9=
EXTT10=
EXTT11=
PLAYORDER=
